<?xml version="1.0" encoding="UTF-8"?>
<svg version="1.1" xmlns="http://www.w3.org/2000/svg" width="489" height="500">
<path d="M0 0 C55.00283341 16.66209611 102.29985254 64.51715602 128.9375 113.875 C136.60704308 128.47225141 142.29591055 143.78299153 146.8125 159.625 C147.07828857 160.55199707 147.34407715 161.47899414 147.61791992 162.43408203 C148.48173302 165.60963386 149.25517218 168.79429398 150 172 C150.25677521 173.09195175 150.25677521 173.09195175 150.51873779 174.20596313 C153.5689055 187.49356658 154.63661401 200.28834409 154.52148438 213.90795898 C154.49964021 216.98823391 154.52163729 220.06627049 154.546875 223.14648438 C154.54423767 225.12760926 154.53912508 227.10873276 154.53125 229.08984375 C154.53934692 229.99919174 154.54744385 230.90853973 154.55578613 231.84544373 C154.4234872 240.79279339 149.9314061 245.48060779 143.734375 251.515625 C119.82858348 273.23574415 90.53885822 287.46557354 61.79833984 301.57006836 C34.59132601 314.94534867 7.83110028 329.12339042 -16 348 C-16.56332031 348.44472656 -17.12664062 348.88945312 -17.70703125 349.34765625 C-34.43367541 362.7209875 -50.54698158 378.55653263 -63 396 C-63.62261719 396.83917969 -64.24523437 397.67835938 -64.88671875 398.54296875 C-82.60762256 422.95401152 -93.29773313 450.44339286 -97.64624023 480.24780273 C-98 482 -98 482 -99 483 C-107.94454398 483.66255881 -116.58845556 481.61831792 -125.3125 479.875 C-126.11912079 479.7152771 -126.92574158 479.5555542 -127.75680542 479.39099121 C-149.9973865 474.96390119 -170.13452622 467.92539038 -191 459 C-192.13308594 458.52304687 -193.26617187 458.04609375 -194.43359375 457.5546875 C-197.71709052 456.16536979 -200.98513768 454.74498488 -204.25 453.3125 C-205.72194824 452.69048706 -205.72194824 452.69048706 -207.22363281 452.0559082 C-216.57209013 447.85335319 -221.76666334 441.59432374 -226.0625 432.4375 C-226.39483643 431.74696533 -226.72717285 431.05643066 -227.06958008 430.3449707 C-228.06870275 428.23944508 -229.04038279 426.12379232 -230 424 C-230.28262695 423.37673828 -230.56525391 422.75347656 -230.85644531 422.11132812 C-243.08343205 394.64126603 -245.88218018 364.54786339 -241 335 C-240.8870459 334.29439941 -240.7740918 333.58879883 -240.65771484 332.86181641 C-235.00230501 298.96721153 -220.38718537 266.81091403 -199 240 C-198.28328125 239.09121094 -197.5665625 238.18242187 -196.828125 237.24609375 C-184.11817967 221.40373281 -169.93614303 206.60067123 -154 194 C-152.12173073 192.4205463 -150.24687606 190.83702535 -148.375 189.25 C-142.22963434 184.1183029 -135.88339395 179.274313 -129.5078125 174.43359375 C-124.12544836 170.34454757 -118.79635125 166.18803526 -113.46606445 162.03149414 C-109.54986178 158.97919115 -105.62483761 155.93974545 -101.68017578 152.92431641 C-96.26515312 148.78418589 -90.93937621 144.55525046 -85.68359375 140.21484375 C-83.87080608 138.71870021 -82.05025443 137.23192165 -80.22265625 135.75390625 C-71.86920093 128.99381688 -63.75588437 122.03929088 -56.375 114.21484375 C-55 113 -55 113 -53 113 C-52.77054688 112.44699219 -52.54109375 111.89398438 -52.3046875 111.32421875 C-50.63575595 108.35112212 -48.50380678 106.25681016 -46.125 103.8125 C-18.50790374 74.43456674 -8.87796839 38.22855093 0 0 Z M76 121 C75.54262451 121.46784912 75.08524902 121.93569824 74.61401367 122.41772461 C58.6989752 138.64822865 58.6989752 138.64822865 50.796875 144.80859375 C48.75477108 146.4086221 46.78755664 148.02771285 44.828125 149.72265625 C18.49083504 172.25157335 -12.53015292 189.01746731 -43.01269531 205.15014648 C-71.23035668 220.09189524 -99.08182311 235.90814484 -124 256 C-124.52706543 256.42265137 -125.05413086 256.84530273 -125.59716797 257.28076172 C-141.28583337 269.97659992 -156.51718141 284.33743171 -168 301 C-168.40863281 301.58023926 -168.81726563 302.16047852 -169.23828125 302.75830078 C-187.86461199 329.25580376 -203.51295103 362.79729383 -198 395.875 C-197.67842766 397.58558619 -197.34975331 399.29495264 -197 401 C-194.68295203 397.52442805 -193.66313617 394.00621651 -192.4375 390.0625 C-183.12314361 361.31822721 -167.71359079 334.83581696 -148 312 C-147.33097656 311.22011719 -146.66195312 310.44023437 -145.97265625 309.63671875 C-135.89762273 298.17331935 -125.09227313 287.32583942 -113 278 C-112.03191406 277.2265625 -111.06382812 276.453125 -110.06640625 275.65625 C-86.86613957 257.35092098 -60.82300212 243.36529697 -35.01953125 229.15234375 C-10.01452429 215.36643305 14.64893041 201.15399383 36 182 C36.52561523 181.53464844 37.05123047 181.06929687 37.59277344 180.58984375 C43.81600652 175.07644233 49.7724472 169.48817947 55 163 C55.76828125 162.08089844 56.5365625 161.16179687 57.328125 160.21484375 C65.8276205 149.81338629 72.92943706 137.85653047 77 125 C76.63310202 122.82272589 76.63310202 122.82272589 76 121 Z " fill="#6D46C7" transform="translate(335,17)"/>
<path d="M0 0 C9.36574382 -0.32791236 18.26545603 0.45922575 27.48779297 1.91650391 C29.65472264 2.25463801 31.82467701 2.56325348 33.99609375 2.87109375 C35.38568785 3.08417644 36.77502307 3.29895598 38.1640625 3.515625 C40.02732178 3.79841309 40.02732178 3.79841309 41.92822266 4.08691406 C45 5 45 5 46.89794922 6.93237305 C51.45048295 15.4736686 46.95278297 27.85287181 44.4140625 36.5546875 C42.73990805 41.97133605 40.63309864 46.97975149 38 52 C37.44828125 53.12148438 36.8965625 54.24296875 36.328125 55.3984375 C28.43325059 71.15255773 17.79007717 84.97849881 6 98 C5.14438477 98.94818604 5.14438477 98.94818604 4.27148438 99.91552734 C-2.79687331 107.7119645 -9.99638284 115.15005739 -18 122 C-19.05552967 122.92873122 -20.11016143 123.85848359 -21.1640625 124.7890625 C-32.45701168 134.69549927 -44.49576055 143.49279871 -56.6875 152.25 C-75.6374683 165.86784213 -94.48064424 179.91909481 -111.61328125 195.796875 C-113.7688899 197.7866676 -115.96225088 199.71395434 -118.1875 201.625 C-125.02759085 207.5856506 -131.0774029 214.14386895 -137 221 C-137.84026733 221.97223511 -137.84026733 221.97223511 -138.69750977 222.96411133 C-151.42424763 237.80729803 -161.90347851 253.70391636 -171 271 C-171.3412793 271.64839844 -171.68255859 272.29679687 -172.03417969 272.96484375 C-193.35442491 314.1771838 -199.08760081 363.12589936 -187 408 C-186.19592327 410.36459867 -185.36664719 412.71310205 -184.48608398 415.05029297 C-184 417 -184 417 -185 420 C-213.90014653 392.07219484 -233.67100736 357.02324079 -243.375 318.0625 C-243.62685059 317.0888147 -243.62685059 317.0888147 -243.88378906 316.09545898 C-246.31259303 305.69960097 -244.94190253 297.00718805 -241.1875 287.125 C-240.78587646 286.04436279 -240.38425293 284.96372559 -239.97045898 283.8503418 C-228.50379081 253.89825413 -209.73477055 228.36712903 -184.68261719 208.35742188 C-182.04224268 206.22734609 -179.43759045 204.05451144 -176.82714844 201.88793945 C-169.63153035 195.92323475 -162.36567721 190.09390951 -154.91308594 184.45214844 C-152.66853558 182.74839837 -150.43188345 181.03452356 -148.1953125 179.3203125 C-139.60187097 172.74145947 -130.97797524 166.2120555 -122.25 159.8125 C-114.07278458 153.81587536 -105.98305975 147.71481916 -97.95947266 141.51416016 C-96.6896583 140.53292559 -95.41857642 139.55332826 -94.14599609 138.57568359 C-74.01313451 123.09858056 -54.25745299 106.28768624 -39.21923828 85.66796875 C-37.98696102 83.98216213 -36.72793445 82.31905295 -35.46484375 80.65625 C-17.26938207 56.35011076 -8.02155546 28.91370956 0 0 Z " fill="#6D46C7" transform="translate(252,0)"/>
<path d="M0 0 C-9.35943288 39.49023871 -36.80391902 74.51803573 -68.95068359 98.46435547 C-71.33288104 100.24944266 -73.6920267 102.06295948 -76.05078125 103.87890625 C-85.31972301 111.00415372 -94.65606835 117.99774134 -104.21289062 124.73095703 C-106.89351351 126.63449225 -109.54929004 128.57184151 -112.20849609 130.50512695 C-118.95058616 135.40477291 -125.74042141 140.22225444 -132.6003418 144.95581055 C-157.37773363 161.88195187 -157.37773363 161.88195187 -179.734375 181.8125 C-182 184 -182 184 -184 184 C-184.24105469 184.57363281 -184.48210937 185.14726562 -184.73046875 185.73828125 C-186.24632465 188.43883684 -188.03787715 190.08412535 -190.3125 192.1875 C-202.28595475 203.98842659 -211.10710923 217.81296272 -219.08300781 232.52563477 C-219.53691895 233.25544556 -219.53691895 233.25544556 -220 234 C-220.33 234 -220.66 234 -221 234 C-221.4902589 216.84470979 -221.08589842 200.70991559 -217 184 C-216.79101074 183.13358887 -216.58202148 182.26717773 -216.36669922 181.37451172 C-204.30560446 132.74164796 -174.67329739 86.78363408 -135 56 C-133.7223871 54.98210857 -132.44506332 53.96385418 -131.16796875 52.9453125 C-121.24696981 45.11128902 -110.98245382 38.25353841 -100 32 C-99.26088379 31.5762207 -98.52176758 31.15244141 -97.76025391 30.71582031 C-69.98119186 14.96486816 -32.51160589 -0.79997942 0 0 Z " fill="#6D46C7" transform="translate(221,0)"/>
<path d="M0 0 C1.01606792 3.17651114 0.94783074 5.2971001 0.21484375 8.53515625 C-0.08160034 9.85821777 -0.08160034 9.85821777 -0.3840332 11.20800781 C-0.60792725 12.14999023 -0.83182129 13.09197266 -1.0625 14.0625 C-1.29219482 15.04186523 -1.52188965 16.02123047 -1.75854492 17.03027344 C-11.67217541 58.28538153 -32.40860864 94.70845877 -62 125 C-62.59635254 125.61681641 -63.19270508 126.23363281 -63.80712891 126.86914062 C-71.14273288 134.44470353 -78.58139139 141.616424 -87 148 C-87.93440918 148.71639648 -87.93440918 148.71639648 -88.88769531 149.44726562 C-125.38746025 177.26815907 -169.08634346 195.41453986 -215 199 C-212.66159099 187.26438212 -209.36409933 176.70697571 -204 166 C-203.6793457 165.35740234 -203.35869141 164.71480469 -203.02832031 164.05273438 C-194.24945561 146.80698832 -182.33557867 131.57933467 -168.79736328 117.828125 C-166.94222504 115.94123623 -165.10959844 114.0340958 -163.27734375 112.125 C-155.37387816 103.96872996 -147.133706 96.73841134 -138 90 C-136.95070313 89.2059375 -135.90140625 88.411875 -134.8203125 87.59375 C-119.74496071 76.35472066 -103.32911926 67.0263171 -86.62280273 58.46264648 C-67.26186908 48.52702031 -48.52935807 37.3989687 -30 26 C-29.31196289 25.58331055 -28.62392578 25.16662109 -27.91503906 24.73730469 C-17.11675398 18.13999627 -8.68835124 9.09559323 0 0 Z " fill="#6D46C7" transform="translate(483,298)"/>
</svg>
